<svg width="34" height="34" viewBox="0 0 34 34" fill="none" xmlns="http://www.w3.org/2000/svg">
<path d="M11.3334 25.5C9.77504 25.5 8.51421 26.775 8.51421 28.3333C8.51421 29.8917 9.77504 31.1667 11.3334 31.1667C12.8917 31.1667 14.1667 29.8917 14.1667 28.3333C14.1667 26.775 12.8917 25.5 11.3334 25.5ZM2.83337 2.83333V5.66666H5.66671L10.7667 16.4192L8.85421 19.89C8.62754 20.2867 8.50004 20.7542 8.50004 21.25C8.50004 22.8083 9.77504 24.0833 11.3334 24.0833H28.3334V21.25H11.9284C11.73 21.25 11.5742 21.0942 11.5742 20.8958L11.6167 20.7258L12.8917 18.4167H23.4459C24.5084 18.4167 25.4434 17.8358 25.925 16.9575L30.9967 7.76333C31.11 7.565 31.1667 7.32416 31.1667 7.08333C31.1667 6.30416 30.5292 5.66666 29.75 5.66666H8.79754L7.46587 2.83333H2.83337ZM25.5 25.5C23.9417 25.5 22.6809 26.775 22.6809 28.3333C22.6809 29.8917 23.9417 31.1667 25.5 31.1667C27.0584 31.1667 28.3334 29.8917 28.3334 28.3333C28.3334 26.775 27.0584 25.5 25.5 25.5Z" fill="white"/>
</svg>
